# xmcd
#
# Track frame offsets:
#	150
#	12649
#	24173
#	38130
#	49785
#	63259
#	78186
#	93872
#	108129
#	126466
#	140607
#	156267
#	170479
#	217691
#	240353
#	254931
#	269431
#	283303
#	316148
#
# Disc length: 4579 seconds
#
# Revision: 0
# Processed by: cddbd v1.4PL0 Copyright (c) Steve Scherf et al.
# Submitted via: EasyCDDAExtractor 4.6.9.1
#
DISCID=0711e113
DTITLE=The Impressions - The Masters
DYEAR=1900
DGENRE=Soul
TTITLE0=For Your Precious Love
TTITLE1=Come Back My Love
TTITLE2=Gypsy Woman
TTITLE3=Keep On Pushing
TTITLE4=I've Been Trying
TTITLE5=Choice Of Colors
TTITLE6=Check Out Your Mind
TTITLE7=(Baby) Turn On To Me
TTITLE8=Ain't Got Time
TTITLE9=Finally Got Myself Together (I'm A Changed Man)
TTITLE10=Something's Mighty Mighty Wrong
TTITLE11=Loving Power
TTITLE12=Thin Line
TTITLE13=First Impressions
TTITLE14=Inner City Blues (Make Me Wanna Holler)
TTITLE15=Preacher Man
TTITLE16=I'll Always Be Here
TTITLE17=Fan The Fire
TTITLE18=Potent Love
EXTD=
EXTT0=
EXTT1=
EXTT2=
EXTT3=
EXTT4=
EXTT5=
EXTT6=
EXTT7=
EXTT8=
EXTT9=
EXTT10=
EXTT11=
EXTT12=
EXTT13=
EXTT14=
EXTT15=
EXTT16=
EXTT17=
EXTT18=
PLAYORDER=
